<?xml version="1.0" encoding="utf-8"?>
<!-- Generator: Adobe Illustrator 16.0.0, SVG Export Plug-In . SVG Version: 6.00 Build 0)  -->
<!DOCTYPE svg PUBLIC "-//W3C//DTD SVG 1.1//EN" "http://www.w3.org/Graphics/SVG/1.1/DTD/svg11.dtd">
<svg version="1.1" id="Layer_1" xmlns="http://www.w3.org/2000/svg" xmlns:xlink="http://www.w3.org/1999/xlink" x="0px" y="0px"
	 width="295.371px" height="44.016px" viewBox="0 0 295.371 44.016" enable-background="new 0 0 295.371 44.016"
	 xml:space="preserve">
<path fill="#6B6B6B" d="M66.229,23.652c0-3.192-2.031-5.272-5.032-5.272c-2.902,0-4.886,2.128-5.417,5.272H66.229z M74.26,28.15
	H55.926c0.822,3.096,3.048,4.838,6.144,4.838c2.274,0,4.498-0.919,6.24-2.661l4.401,4.307c-2.661,2.901-6.579,4.595-11.368,4.595
	c-8.514,0-13.834-5.321-13.834-13.252c0-8.082,5.515-13.401,13.593-13.401C70.292,12.575,74.839,18.621,74.26,28.15"/>
<rect x="78.296" y="5.076" fill="#6B6B6B" width="8.368" height="33.862"/>
<rect x="92.165" y="5.076" fill="#6B6B6B" width="8.367" height="33.862"/>
<polygon fill="#6B6B6B" points="119.604,25.637 115.104,30.617 115.104,38.938 106.494,38.938 106.494,5.077 115.104,5.077 
	115.104,19.735 128.069,5.077 138.034,5.077 125.457,19.105 138.856,38.938 128.553,38.938 "/>
<path fill="#6B6B6B" d="M146.064,25.976c0,4.064,2.369,6.771,5.854,6.771c3.435,0,5.805-2.707,5.805-6.771
	c0-4.017-2.37-6.774-5.805-6.774C148.434,19.202,146.064,21.959,146.064,25.976 M166.14,25.878c0,8.029-5.708,13.35-14.222,13.35
	c-8.563,0-14.271-5.321-14.271-13.35c0-8.032,5.708-13.304,14.271-13.304C160.432,12.575,166.14,17.847,166.14,25.878"/>
<path fill="#6B6B6B" d="M214.296,22.492v16.447h-8.32V24.813c0-3.095-1.741-4.982-4.5-4.982c-3.144,0.096-5.078,2.661-5.078,6.192
	v12.916h-8.369V24.813c0-3.095-1.692-4.982-4.45-4.982c-3.193,0.096-5.176,2.661-5.176,6.192v12.916h-8.321V12.864h8.321v4.307
	c1.789-3.096,4.788-4.644,8.609-4.692c4.257,0,7.402,2.223,8.708,5.901c1.693-3.87,4.887-5.853,9.191-5.901
	C210.619,12.479,214.296,16.397,214.296,22.492"/>
<path fill="#6B6B6B" d="M0,28.925V12.479h8.321v14.125c0,3.095,1.741,4.983,4.499,4.983c3.145-0.097,5.08-2.661,5.08-6.191V12.479
	h8.369v14.125c0,3.095,1.693,4.983,4.451,4.983c3.192-0.097,5.175-2.661,5.175-6.191V12.479h8.321v26.075h-8.321v-4.308
	c-1.79,3.097-4.789,4.644-8.61,4.692c-4.257,0-7.401-2.223-8.708-5.9c-1.692,3.869-4.885,5.852-9.19,5.9
	C3.677,38.938,0,35.021,0,28.925"/>
<path fill="#59B67D" d="M252.642,20.477c-8.928,0-12.924-9.515-12.924-18.944h7.557c0,2.956,0.985,11.387,5.367,11.387
	c2.544,0,3.672-1.599,6.024-5.831c0.997-1.795,2.13-3.832,3.62-5.682c0.749-0.93,1.899-1.43,3.083-1.405
	c1.193,0.044,2.294,0.65,2.97,1.632c1.33,1.932,2.217,3.899,2.997,5.632c1.834,4.072,2.521,5.595,6.619,5.595
	c3.859,0,5.227-3.327,5.227-12.714h7.558c0,5.543,0,20.271-12.784,20.271c-8.304,0-11.075-4.76-13.039-9.018
	C262.563,15.6,259.521,20.477,252.642,20.477"/>
<path fill="#83B197" d="M251.856,33.421c-3.373,0-7.398-1.139-12.621-4.832l4.363-6.171c6.503,4.603,9.217,3.667,13.319,2.262
	c2.769-0.95,6.215-2.134,10.829-1.653c3.783,0.39,6.563,1.04,8.798,1.562c5.166,1.204,6.905,1.613,14.678-3.493l4.148,6.318
	c-10.016,6.578-13.933,6.077-20.546,4.534c-2.132-0.498-4.55-1.062-7.856-1.407c-2.96-0.298-5.109,0.433-7.599,1.286
	C257.114,32.601,254.722,33.421,251.856,33.421"/>
<rect x="241.193" y="36.458" fill="#6B6B6B" width="53.765" height="7.558"/>
</svg>
